<svg width="30" height="30" viewBox="0 0 30 30" fill="none" xmlns="http://www.w3.org/2000/svg">
<path d="M30 2.14286C30 0.957589 29.0424 0 27.8571 0H2.14286C0.957589 0 0 0.957589 0 2.14286C0 3.32812 0.957589 4.28571 2.14286 4.28571H27.8571C29.0424 4.28571 30 3.32812 30 2.14286ZM30 19.2857C30 18.1004 29.0424 17.1429 27.8571 17.1429H2.14286C0.957589 17.1429 0 18.1004 0 19.2857C0 20.471 0.957589 21.4286 2.14286 21.4286H27.8571C29.0424 21.4286 30 20.471 30 19.2857ZM0 10.7143C0 11.8996 0.957589 12.8571 2.14286 12.8571H27.8571C29.0424 12.8571 30 11.8996 30 10.7143C30 9.52902 29.0424 8.57143 27.8571 8.57143H2.14286C0.957589 8.57143 0 9.52902 0 10.7143ZM30 27.8571C30 26.6719 29.0424 25.7143 27.8571 25.7143H2.14286C0.957589 25.7143 0 26.6719 0 27.8571C0 29.0424 0.957589 30 2.14286 30H27.8571C29.0424 30 30 29.0424 30 27.8571Z" fill="#4B5563"/>
</svg>
